<svg height="512pt" viewBox="0 0 512 512" width="512pt" xmlns="http://www.w3.org/2000/svg"><path d="m256 432c97.046875 0 176-78.953125 176-176s-78.953125-176-176-176-176 78.953125-176 176 78.953125 176 176 176zm-153.09375-146h80.667969l-57.003907 57c-11.421874-16.941406-19.605468-36.242188-23.664062-57zm23.667969-117 57 57h-80.667969c4.058594-20.757812 12.242188-40.058594 23.667969-57zm26.472656-30.097656 72.519531 72.519531c-5.546875 3.796875-10.347656 8.597656-14.144531 14.144531l-72.519531-72.519531c4.410156-5.011719 9.132812-9.734375 14.144531-14.144531zm220.050781 14.144531-72.519531 72.519531c-3.796875-5.546875-8.597656-10.347656-14.144531-14.144531l72.519531-72.519531c5.011719 4.410156 9.734375 9.132812 14.144531 14.144531zm35.996094 72.953125h-80.667969l57.003907-57c11.421874 16.941406 19.605468 36.242188 23.664062 57zm-50.140625 147.097656-72.519531-72.519531c5.546875-3.796875 10.347656-8.597656 14.144531-14.144531l72.519531 72.519531c-4.410156 5.011719-9.132812 9.734375-14.144531 14.144531zm-15.953125 12.328125c-16.941406 11.425781-36.242188 19.609375-57 23.667969v-80.667969zm-57-201.851562v-80.667969c20.757812 4.058594 40.058594 12.242188 57 23.667969zm4 72.425781c0 18.746094-15.253906 34-34 34s-34-15.253906-34-34 15.253906-34 34-34 34 15.253906 34 34zm-121-129.425781c16.941406-11.425781 36.242188-19.609375 57-23.667969v80.667969zm33.941406 119.425781c-.609375 3.242188-.941406 6.582031-.941406 10s.332031 6.757812.941406 10h-102.613281c-.207031-3.308594-.328125-6.640625-.328125-10s.117188-6.691406.328125-10zm8.480469 40.433594c3.796875 5.546875 8.597656 10.347656 14.144531 14.144531l-72.519531 72.519531c-5.011719-4.410156-9.734375-9.132812-14.144531-14.144531zm14.578125 41.992187v80.667969c-20.757812-4.058594-40.058594-12.242188-57-23.667969zm20 83.246094v-102.613281c3.242188.609375 6.582031.941406 10 .941406s6.757812-.332031 10-.941406v102.613281c-3.308594.207031-6.640625.328125-10 .328125s-6.691406-.117188-10-.328125zm139.425781-68.671875-57-57h21.238281c5.523438 0 10-4.476562 10-10s-4.476562-10-10-10h-40.609374c.609374-3.242188.945312-6.582031.945312-10s-.335938-6.757812-.945312-10h102.617187c.207031 3.308594.328125 6.640625.328125 10 0 32.1875-9.800781 62.128906-26.574219 87zm-119.425781-242.671875v102.617187c-3.242188-.609374-6.582031-.945312-10-.945312s-6.757812.335938-10 .945312v-102.617187c3.308594-.207031 6.640625-.328125 10-.328125s6.691406.117188 10 .328125zm0 0"/><path d="m482 226h-12.070312c-5.035157-36.457031-19.226563-70.71875-41.445313-100.058594l8.535156-8.535156c11.695313-11.695312 11.695313-30.726562 0-42.425781-11.699219-11.695313-30.730469-11.695313-42.425781 0l-8.535156 8.535156c-29.339844-22.21875-63.601563-36.410156-100.058594-41.445313v-12.070312c0-16.542969-13.457031-30-30-30s-30 13.457031-30 30v12.070312c-36.457031 5.035157-70.71875 19.226563-100.058594 41.445313l-8.535156-8.535156c-11.695312-11.695313-30.726562-11.695313-42.425781 0-11.699219 11.699219-11.699219 30.730469 0 42.425781l8.535156 8.535156c-22.21875 29.339844-36.410156 63.601563-41.445313 100.058594h-12.070312c-16.542969 0-30 13.457031-30 30s13.457031 30 30 30h12.070312c5.035157 36.457031 19.226563 70.71875 41.445313 100.058594l-8.535156 8.535156c-11.695313 11.695312-11.695313 30.726562 0 42.425781 5.847656 5.847657 13.53125 8.773438 21.214843 8.773438 7.679688 0 15.363282-2.925781 21.210938-8.773438l8.535156-8.535156c29.339844 22.21875 63.601563 36.410156 100.058594 41.449219v12.066406c0 16.542969 13.457031 30 30 30s30-13.457031 30-30v-12.070312c36.457031-5.035157 70.71875-19.226563 100.058594-41.445313l8.535156 8.535156c5.847656 5.847657 13.53125 8.769531 21.210938 8.769531 7.683593 0 15.367187-2.921874 21.214843-8.769531 11.695313-11.699219 11.695313-30.730469 0-42.425781l-8.535156-8.535156c22.21875-29.339844 36.410156-63.601563 41.445313-100.058594h12.070312c16.542969 0 30-13.460938 30-30 0-16.542969-13.457031-30-30-30zm-73.265625-136.878906c3.898437-3.898438 10.242187-3.898438 14.144531 0 3.898438 3.902344 3.898438 10.246094 0 14.144531l-7.238281 7.238281c-2.242187-2.457031-4.539063-4.871094-6.90625-7.238281s-4.78125-4.664063-7.234375-6.90625zm-162.734375-59.121094c0-5.515625 4.484375-10 10-10s10 4.484375 10 10v10.234375c-3.320312-.148437-6.652344-.234375-10-.234375s-6.679688.085938-10 .234375zm-156.878906 73.265625c-3.898438-3.898437-3.898438-10.242187 0-14.144531 3.898437-3.898438 10.246094-3.898438 14.144531 0l7.238281 7.238281c-2.457031 2.242187-4.871094 4.539063-7.238281 6.90625s-4.664063 4.78125-6.90625 7.234375zm-59.121094 162.734375c-5.515625 0-10-4.484375-10-10s4.484375-10 10-10h10.234375c-.148437 3.320312-.234375 6.652344-.234375 10s.082031 6.679688.234375 10zm226-206c108.074219 0 196 87.925781 196 196s-87.925781 196-196 196-196-87.925781-196-196 87.925781-196 196-196zm-152.734375 362.878906c-3.898437 3.898438-10.242187 3.898438-14.144531 0-3.898438-3.902344-3.898438-10.246094 0-14.144531l7.238281-7.238281c2.242187 2.457031 4.539063 4.871094 6.90625 7.238281s4.78125 4.664063 7.234375 6.90625zm162.734375 59.121094c0 5.515625-4.484375 10-10 10s-10-4.484375-10-10v-10.234375c3.320312.148437 6.652344.234375 10 .234375s6.679688-.085938 10-.234375zm156.878906-73.265625c3.898438 3.898437 3.898438 10.242187 0 14.144531-3.898437 3.898438-10.246094 3.898438-14.144531 0l-7.238281-7.238281c2.457031-2.242187 4.871094-4.539063 7.238281-6.90625s4.664063-4.78125 6.90625-7.234375zm59.121094-142.734375h-10.234375c.148437-3.320312.234375-6.652344.234375-10s-.082031-6.679688-.234375-10h10.234375c5.515625 0 10 4.484375 10 10s-4.484375 10-10 10zm0 0"/><path d="m394.589844 268.929688c-1.859375-1.859376-4.441406-2.929688-7.070313-2.929688-2.628906 0-5.210937 1.070312-7.070312 2.929688-1.859375 1.859374-2.929688 4.441406-2.929688 7.070312s1.070313 5.210938 2.929688 7.070312c1.859375 1.859376 4.441406 2.929688 7.070312 2.929688 2.628907 0 5.210938-1.070312 7.070313-2.929688 1.871094-1.859374 2.929687-4.441406 2.929687-7.070312s-1.058593-5.210938-2.929687-7.070312zm0 0"/><path d="m248.929688 248.929688c-1.859376 1.859374-2.929688 4.441406-2.929688 7.070312s1.070312 5.210938 2.929688 7.070312c1.859374 1.859376 4.441406 2.929688 7.070312 2.929688s5.210938-1.070312 7.070312-2.929688c1.859376-1.859374 2.929688-4.441406 2.929688-7.070312s-1.070312-5.210938-2.929688-7.070312c-1.859374-1.859376-4.441406-2.929688-7.070312-2.929688s-5.210938 1.070312-7.070312 2.929688zm0 0"/></svg>