<?xml version="1.0" encoding="UTF-8"?>
<!DOCTYPE svg PUBLIC "-//W3C//DTD SVG 1.1//EN" "http://www.w3.org/Graphics/SVG/1.1/DTD/svg11.dtd">
<!-- Creator: CorelDRAW X7 -->
<svg xmlns="http://www.w3.org/2000/svg" xml:space="preserve" width="56.8298mm" height="56.8298mm" version="1.1" style="shape-rendering:geometricPrecision; text-rendering:geometricPrecision; image-rendering:optimizeQuality; fill-rule:evenodd; clip-rule:evenodd"
viewBox="0 0 5683 5683"
 xmlns:xlink="http://www.w3.org/1999/xlink">
 <defs>
  <style type="text/css">
   <![CDATA[
    .str0 {stroke:black;stroke-width:20}
    .fil2 {fill:black}
    .fil0 {fill:black}
    .fil1 {fill:white}
   ]]>
  </style>
 </defs>
 <g id="Layer_x0020_1">
  <metadata id="CorelCorpID_0Corel-Layer"/>
  <g id="_407293064">
   <circle class="fil0" cx="2841" cy="2841" r="2841"/>
   <circle class="fil1 str0" cx="2841" cy="2841" r="2724"/>
   <path class="fil2" d="M4479 5018c-456,343 -1023,547 -1638,547 -576,0 -1111,-179 -1551,-485 5,-2 10,-4 14,-7 4,0 11,0 15,0l0 -9c8,-2 25,-5 33,-6 -3,-1 -10,-3 -14,-4 0,-13 0,-26 0,-39l-8 -1c-1,-19 -2,-38 -2,-57l-8 0c0,-43 -31,-97 9,-131l-1 -9c33,-54 50,-115 70,-174 7,-14 7,-29 9,-44l6 1c4,-24 9,-49 15,-73 7,-17 6,-35 8,-53l7 1c1,-18 1,-36 8,-53 7,-57 20,-115 12,-173l9 35c1,-19 2,-37 3,-56 9,-22 7,-47 7,-71 13,-5 26,-9 39,-12l1 -4c12,-4 25,-7 35,-17 44,-36 91,-75 112,-130l7 0c0,-7 1,-19 1,-25 23,-28 28,-75 5,-104 -36,39 -64,83 -96,125 -40,32 -80,64 -122,92l-2 6c-27,5 -232,40 -252,49 -54,4 -107,-1 -160,0l-1 -8c-20,0 -39,-1 -59,-1l2 -9c-12,-1 -24,-1 -35,-2 -24,-9 -46,-20 -66,-34 -117,-59 -204,-163 -271,-273 56,-7 110,8 165,12 16,4 32,10 48,15 17,1 35,2 53,3 -10,53 316,-27 389,-88 2,-1 7,-1 10,-1 17,-24 44,-35 63,-57 54,-50 98,-111 131,-178 49,-83 96,-167 145,-250 5,-10 10,-20 16,-30 17,-28 30,-59 54,-81 63,-57 130,-113 210,-146 12,-6 24,-12 35,-18 3,-1 8,-2 11,-2 11,-4 23,-7 35,-9l-1 -6c16,-2 31,-6 46,-12 7,-13 16,-24 23,-36 140,-171 312,-114 467,-177 29,-9 58,-16 88,-21 12,-4 25,-7 37,-10 8,-2 24,-6 32,-7l1 -7c60,-68 131,-126 202,-184l9 -3c16,-15 37,-26 54,-41 41,-25 83,-47 125,-71 14,-4 28,-9 43,-14l-1 -8c10,1 20,1 30,2l1 -8c6,-1 18,-4 23,-6 31,-41 63,-81 95,-122 56,-64 117,-126 184,-179 21,-10 42,-22 62,-34 15,-23 28,-47 40,-72 0,-2 -1,-7 -1,-10 10,-13 15,-28 16,-45 -35,0 -69,1 -104,1 37,-67 77,-138 146,-177 33,-20 61,-49 76,-85 16,-67 62,-146 101,-209 10,-12 20,-24 30,-35 14,-5 27,-10 41,-15 13,-5 27,-8 42,-9l-1 -10 9 2c33,-55 69,-108 104,-163 34,-51 67,-104 100,-156 11,-15 21,-31 36,-42 1,4 3,13 4,17 21,-8 62,26 85,38l1 9c4,0 13,-1 17,-2 0,7 1,22 2,29l8 0c-1,29 0,57 2,86 16,1 31,3 47,4 0,4 -1,11 -1,15l11 1c-2,62 0,125 -3,188 -14,40 2,85 -16,124 -4,29 4,61 -11,87 1,4 2,11 3,15l-11 1c0,72 -1,145 0,217 0,23 9,44 15,65 11,36 20,73 24,110 8,20 8,41 8,62l9 -1c-2,19 6,44 -9,60 -2,116 3,233 -2,350 -11,34 -2,71 -14,105 -8,88 -25,163 -64,241 -11,20 -22,40 -28,62l-5 0c-10,26 -24,50 -38,74 -53,92 -109,183 -187,256 -19,19 -38,41 -63,51 -6,20 -12,39 -19,59 -2,21 -3,42 -3,63l-8 -1c-1,21 -3,42 -4,63 -5,13 -11,26 -18,37 1,4 2,11 2,14l-9 1c-23,44 -51,86 -76,131 -15,26 -31,53 -44,81l-10 1c1,5 4,13 5,17l-11 1c-12,54 -12,109 -11,165l-9 -2c3,54 -2,108 2,161 5,34 9,68 7,102l8 -1c0,23 1,45 2,67l7 0c3,16 7,32 13,48 16,0 32,0 49,0l-2 -9c23,0 45,-1 67,-1l1 8c87,67 168,142 256,209 9,15 16,32 26,47 11,17 20,36 29,55l9 1c-1,4 -3,13 -5,17l11 0c7,17 15,33 22,50l6 0c12,38 39,68 53,105l9 1c0,3 -2,10 -2,14 23,28 35,63 57,93 7,18 13,36 26,51 9,15 16,33 32,42 28,19 58,35 87,53zm-1147 -1392c1,7 1,22 2,30l-10 -2c0,36 -3,73 -1,109l-9 -3c1,107 -4,214 -2,320l-9 -2c3,55 -8,253 43,282 0,5 -2,13 -2,17 4,0 13,1 17,1l-1 12c22,-2 188,-48 206,-59l-2 -9c15,-11 5,-34 9,-50 -3,1 -9,1 -13,2l7 -13 -13 1c1,-5 1,-13 2,-18 -5,0 -14,-2 -19,-3 -5,-33 -2,-66 -5,-99 -8,-46 -7,-94 -3,-141 -3,1 -8,2 -11,3 0,-21 4,-157 -11,-156 0,-31 -11,-155 -36,-156 -3,-42 2,-85 -6,-127 -17,47 -87,60 -133,61zm-557 14l-19 -5c-4,286 -210,459 -284,637 -4,1 -12,1 -16,1 0,5 -1,14 -1,19 -5,-1 -14,-1 -18,-2l1 11c-10,3 -20,7 -30,11l0 10c-5,0 -14,0 -19,0 0,3 0,11 0,15 -23,9 -36,31 -54,46 -6,8 -14,14 -24,17l2 9 -12 -3 2 13 -12 -4 3 13 -13 -3 4 12 -13 -3 2 13 -11 -3 0 11 -10 0 0 9c-31,-1 -18,40 -20,59l-7 0c3,67 -1,133 1,200l9 10 20 1 -2 -15c227,-16 677,-236 903,-256 -1,-23 0,-47 -1,-70 -7,-5 -10,-12 -9,-21 -16,-1 -17,-17 -20,-30 -24,2 -8,-36 -34,-32 -2,-189 2,-378 -4,-566l-8 1c0,-26 0,-52 -2,-78 -3,0 -10,-1 -13,-1 -2,-9 -4,-16 -5,-25 -8,34 -262,17 -286,-1zm-707 504l-7 -19c-11,3 -18,10 -22,19 -13,4 -30,4 -28,23 -27,-3 -130,90 -160,89 3,25 -35,8 -33,33 -4,0 -12,2 -16,3l-4 10c-5,-1 -13,-2 -17,-2l2 13 -12 -4 0 12c-4,0 -13,-1 -17,-1 -1,7 -3,23 -4,30 -4,0 -11,0 -14,0 -1,7 -2,19 -3,26 -15,18 -147,321 -147,321l-10 -2c1,5 3,15 4,20l-13 0c1,5 3,15 4,19l-14 1c2,5 5,15 7,19l-13 -3c0,9 1,26 1,35l-10 -3c-1,58 -2,116 -1,175l9 -2c0,7 0,23 0,30l10 -2 4 24 7 -23c13,0 25,0 37,0l-1 -9c10,-1 29,-1 38,-2 1,-3 1,-8 2,-11 10,3 145,-39 146,-48 4,-1 184,-53 198,-53 6,-18 29,-7 42,-12l-2 -11 11 4c-2,-58 1,-116 -4,-173 -6,-30 3,-94 -14,-88 -7,-240 80,-184 52,-469 -2,8 -6,24 -8,31z"/>
  </g>
 </g>
</svg>
